<mxfile host="app.diagrams.net" modified="2024-01-16T17:19:09.738Z" agent="Mozilla/5.0 (Windows NT 10.0; Win64; x64) AppleWebKit/537.36 (KHTML, like Gecko) Chrome/120.0.0.0 Safari/537.36 OPR/106.0.0.0" version="22.1.19" etag="aKOupvKaLM7MT2XUyWMc" type="github">
  <diagram name="Page-1" id="hyd4bL8rF8hzbEsS30TQ">
    <mxGraphModel>
      <root>
        <mxCell id="0" />
        <mxCell id="1" parent="0" />
      </root>
    </mxGraphModel>
  </diagram>
</mxfile>
